<?xml version="1.0" encoding="utf-8"?>
<!-- Generator: Adobe Illustrator 23.0.1, SVG Export Plug-In . SVG Version: 6.00 Build 0)  -->
<svg version="1.1" id="Layer_2" xmlns="http://www.w3.org/2000/svg" xmlns:xlink="http://www.w3.org/1999/xlink" x="0px" y="0px"
	 viewBox="0 0 16382.95 16382.95" style="enable-background:new 0 0 16382.95 16382.95;" xml:space="preserve">
<style type="text/css">
	.st0{fill:url(#SVGID_1_);}
	.st1{fill:url(#SVGID_2_);}
	.st2{fill:url(#SVGID_3_);}
	.st3{fill:url(#SVGID_4_);}
	.st4{fill:url(#SVGID_5_);}
	.st5{fill:url(#SVGID_6_);}
	.st6{fill:url(#SVGID_7_);}
	.st7{fill:url(#SVGID_8_);}
	.st8{fill:url(#SVGID_9_);}
	.st9{fill:url(#SVGID_10_);}
	.st10{fill:url(#SVGID_11_);}
	.st11{fill:url(#SVGID_12_);}
	.st12{fill:url(#SVGID_13_);}
	.st13{fill:url(#SVGID_14_);}
	.st14{fill:url(#SVGID_15_);}
	.st15{fill:url(#SVGID_16_);}
	.st16{fill:url(#SVGID_17_);}
	.st17{fill:url(#SVGID_18_);}
	.st18{fill:url(#SVGID_19_);}
	.st19{fill:url(#SVGID_20_);}
	.st20{fill:url(#SVGID_21_);}
	.st21{fill:url(#SVGID_22_);}
	.st22{fill:url(#SVGID_23_);}
	.st23{fill:url(#SVGID_24_);}
	.st24{fill:url(#SVGID_25_);}
	.st25{fill:url(#SVGID_26_);}
	.st26{fill:url(#SVGID_27_);}
	.st27{fill:url(#SVGID_28_);}
	.st28{fill:url(#SVGID_29_);}
	.st29{fill:url(#SVGID_30_);}
	.st30{fill:url(#SVGID_31_);}
	.st31{fill:url(#SVGID_32_);}
	.st32{fill:url(#SVGID_33_);}
	.st33{fill:url(#SVGID_34_);}
	.st34{fill:url(#SVGID_35_);}
	.st35{fill:url(#SVGID_36_);}
	.st36{fill:url(#SVGID_37_);}
	.st37{fill:url(#SVGID_38_);}
	.st38{fill:url(#SVGID_39_);}
	.st39{fill:url(#SVGID_40_);}
	.st40{fill:url(#SVGID_41_);}
	.st41{fill:url(#SVGID_42_);}
	.st42{fill:url(#SVGID_43_);}
	.st43{fill:url(#SVGID_44_);}
	.st44{fill:url(#SVGID_45_);}
	.st45{fill:url(#SVGID_46_);}
	.st46{fill:url(#SVGID_47_);}
	.st47{fill:url(#SVGID_48_);}
	.st48{fill:url(#SVGID_49_);}
	.st49{fill:url(#SVGID_50_);}
	.st50{fill:url(#SVGID_51_);}
	.st51{fill:url(#SVGID_52_);}
	.st52{fill:url(#SVGID_53_);}
	.st53{fill:url(#SVGID_54_);}
	.st54{fill:url(#SVGID_55_);}
	.st55{fill:url(#SVGID_56_);}
	.st56{fill:url(#SVGID_57_);}
	.st57{fill:url(#SVGID_58_);}
	.st58{fill:url(#SVGID_59_);}
	.st59{fill:url(#SVGID_60_);}
	.st60{fill:url(#SVGID_61_);}
	.st61{fill:url(#SVGID_62_);}
	.st62{fill:url(#SVGID_63_);}
</style>
<g>
	<linearGradient id="SVGID_1_" gradientUnits="userSpaceOnUse" x1="5129.2412" y1="5138.7715" x2="10405.5371" y2="5219.9448">
		<stop  offset="0" style="stop-color:#FFFFFF"/>
		<stop  offset="1" style="stop-color:#000000"/>
	</linearGradient>
	<circle class="st0" cx="8250.17" cy="5186.79" r="784.68"/>
	<linearGradient id="SVGID_2_" gradientUnits="userSpaceOnUse" x1="5087.7188" y1="7837.7427" x2="10364.0146" y2="7918.916">
		<stop  offset="0" style="stop-color:#FFFFFF"/>
		<stop  offset="1" style="stop-color:#000000"/>
	</linearGradient>
	<path class="st1" d="M9050.01,6258.96H7352.26c-666.22,0-612.25,2398.01-612.25,2398.01c0,472.5,386.59,859.09,859.09,859.09
		h1204.08c472.5,0,859.09-386.59,859.09-859.09C9662.26,8656.96,9716.23,6258.96,9050.01,6258.96z"/>
	<linearGradient id="SVGID_3_" gradientUnits="userSpaceOnUse" x1="5043.8472" y1="10689.3945" x2="10320.1426" y2="10770.5684">
		<stop  offset="0" style="stop-color:#FFFFFF"/>
		<stop  offset="1" style="stop-color:#000000"/>
	</linearGradient>
	<path class="st2" d="M8497.08,11959.72h-510.72c-254.98,0-461.68-206.7-461.68-461.68V9524.51h1434.07v1973.54
		C8958.75,11753.02,8752.05,11959.72,8497.08,11959.72z"/>
</g>
<g>
	<g>
		<linearGradient id="SVGID_4_" gradientUnits="userSpaceOnUse" x1="7886.9175" y1="482.7022" x2="8501.3223" y2="482.7022">
			<stop  offset="0" style="stop-color:#FFFFFF"/>
			<stop  offset="1" style="stop-color:#000000"/>
		</linearGradient>
		<circle class="st3" cx="8194.12" cy="482.7" r="307.2"/>
		<linearGradient id="SVGID_5_" gradientUnits="userSpaceOnUse" x1="7602.4771" y1="1540.0338" x2="8747.3623" y2="1540.0338">
			<stop  offset="0" style="stop-color:#FFFFFF"/>
			<stop  offset="1" style="stop-color:#000000"/>
		</linearGradient>
		<path class="st4" d="M8507.25,902.46h-664.67c-260.83,0-239.7,938.82-239.7,938.82c0,184.98,151.35,336.33,336.33,336.33h471.4
			c184.98,0,336.33-151.35,336.33-336.33C8746.95,1841.28,8768.08,902.46,8507.25,902.46z"/>
		<linearGradient id="SVGID_6_" gradientUnits="userSpaceOnUse" x1="7910.0898" y1="2657.6143" x2="8471.5283" y2="2657.6143">
			<stop  offset="0" style="stop-color:#FFFFFF"/>
			<stop  offset="1" style="stop-color:#000000"/>
		</linearGradient>
		<path class="st5" d="M8290.78,3134.31h-199.95c-99.82,0-180.75-80.92-180.75-180.75v-772.64h561.44v772.64
			C8471.53,3053.38,8390.61,3134.31,8290.78,3134.31z"/>
	</g>
	<g>
		<linearGradient id="SVGID_7_" gradientUnits="userSpaceOnUse" x1="5498.1162" y1="863.2593" x2="6112.686" y2="863.2593">
			<stop  offset="0" style="stop-color:#FFFFFF"/>
			<stop  offset="1" style="stop-color:#000000"/>
		</linearGradient>
		<circle class="st6" cx="5805.4" cy="863.26" r="307.2"/>
		<linearGradient id="SVGID_8_" gradientUnits="userSpaceOnUse" x1="5504.6221" y1="1865.4856" x2="6767.3931" y2="1865.4856">
			<stop  offset="0" style="stop-color:#FFFFFF"/>
			<stop  offset="1" style="stop-color:#000000"/>
		</linearGradient>
		<path class="st7" d="M6232.92,1165.71l-632.14,205.39c-248.06,80.6,62.15,966.94,62.15,966.94
			c57.16,175.93,247.88,273.1,423.8,215.94l448.32-145.67c175.93-57.16,273.1-247.88,215.94-423.8
			C6751,1984.51,6480.98,1085.11,6232.92,1165.71z"/>
		<linearGradient id="SVGID_9_" gradientUnits="userSpaceOnUse" x1="6060.0513" y1="2909.2673" x2="6841.665" y2="2909.2673">
			<stop  offset="0" style="stop-color:#FFFFFF"/>
			<stop  offset="1" style="stop-color:#000000"/>
		</linearGradient>
		<path class="st8" d="M6716.72,3355.22L6526.56,3417c-94.94,30.85-196.91-21.11-227.75-116.05l-238.76-734.82l533.96-173.49
			l238.76,734.82C6863.62,3222.4,6811.66,3324.37,6716.72,3355.22z"/>
	</g>
	<g>
		<linearGradient id="SVGID_10_" gradientUnits="userSpaceOnUse" x1="3343.9695" y1="1963.3452" x2="3958.4175" y2="1963.3452">
			<stop  offset="0" style="stop-color:#FFFFFF"/>
			<stop  offset="1" style="stop-color:#000000"/>
		</linearGradient>
		<circle class="st9" cx="3651.19" cy="1963.35" r="307.2"/>
		<linearGradient id="SVGID_11_" gradientUnits="userSpaceOnUse" x1="3566.5876" y1="2823.498" x2="4960.8789" y2="2823.498">
			<stop  offset="0" style="stop-color:#FFFFFF"/>
			<stop  offset="1" style="stop-color:#000000"/>
		</linearGradient>
		<path class="st10" d="M4151.25,2118.88l-537.73,390.68c-211.01,153.31,357.91,900.41,357.91,900.41
			c108.73,149.65,320.14,183.14,469.79,74.41l381.37-277.08c149.65-108.73,183.14-320.14,74.41-469.79
			C4896.99,2737.51,4362.26,1965.57,4151.25,2118.88z"/>
		<linearGradient id="SVGID_12_" gradientUnits="userSpaceOnUse" x1="4419.5967" y1="3688.978" x2="5362.4888" y2="3688.978">
			<stop  offset="0" style="stop-color:#FFFFFF"/>
			<stop  offset="1" style="stop-color:#000000"/>
		</linearGradient>
		<path class="st11" d="M5287.97,4051.72l-161.76,117.53c-80.76,58.67-193.79,40.77-252.47-39.99l-454.15-625.08l454.21-330.01
			l454.15,625.08C5386.63,3880.01,5368.73,3993.05,5287.97,4051.72z"/>
	</g>
	<g>
		<linearGradient id="SVGID_13_" gradientUnits="userSpaceOnUse" x1="1635.1415" y1="3675.2759" x2="2249.5894" y2="3675.2759">
			<stop  offset="0" style="stop-color:#FFFFFF"/>
			<stop  offset="1" style="stop-color:#000000"/>
		</linearGradient>
		<circle class="st12" cx="1942.37" cy="3675.28" r="307.2"/>
		<linearGradient id="SVGID_14_" gradientUnits="userSpaceOnUse" x1="2055.1797" y1="4318.8823" x2="3504.7146" y2="4318.8823">
			<stop  offset="0" style="stop-color:#FFFFFF"/>
			<stop  offset="1" style="stop-color:#000000"/>
		</linearGradient>
		<path class="st13" d="M2466.01,3668.67l-390.68,537.73c-153.31,211.01,618.63,745.74,618.63,745.74
			c149.65,108.73,361.06,75.25,469.79-74.41l277.08-381.37c108.73-149.65,75.25-361.06-74.41-469.79
			C3366.42,4026.58,2619.32,3457.66,2466.01,3668.67z"/>
		<linearGradient id="SVGID_15_" gradientUnits="userSpaceOnUse" x1="3149.3052" y1="4920.4814" x2="4178.9082" y2="4920.4814">
			<stop  offset="0" style="stop-color:#FFFFFF"/>
			<stop  offset="1" style="stop-color:#000000"/>
		</linearGradient>
		<path class="st14" d="M4144.38,5155.65l-117.53,161.76c-58.67,80.76-171.71,98.66-252.47,39.99l-625.08-454.15l330.01-454.21
			l625.08,454.15C4185.15,4961.86,4203.05,5074.89,4144.38,5155.65z"/>
	</g>
	<g>
		<linearGradient id="SVGID_16_" gradientUnits="userSpaceOnUse" x1="538.904" y1="5831.4756" x2="1153.4742" y2="5831.4756">
			<stop  offset="0" style="stop-color:#FFFFFF"/>
			<stop  offset="1" style="stop-color:#000000"/>
		</linearGradient>
		<circle class="st15" cx="846.19" cy="5831.48" r="307.2"/>
		<linearGradient id="SVGID_17_" gradientUnits="userSpaceOnUse" x1="1131.6587" y1="6198.603" x2="2541.4397" y2="6198.603">
			<stop  offset="0" style="stop-color:#FFFFFF"/>
			<stop  offset="1" style="stop-color:#000000"/>
		</linearGradient>
		<path class="st16" d="M1342.16,5663.38l-205.39,632.14c-80.6,248.06,818.8,518.08,818.8,518.08
			c175.93,57.16,366.64-40.01,423.8-215.94l145.67-448.32c57.16-175.93-40.01-366.64-215.94-423.8
			C2309.11,5725.52,1422.76,5415.32,1342.16,5663.38z"/>
		<linearGradient id="SVGID_18_" gradientUnits="userSpaceOnUse" x1="2373.5215" y1="6483.2295" x2="3406.781" y2="6483.2295">
			<stop  offset="0" style="stop-color:#FFFFFF"/>
			<stop  offset="1" style="stop-color:#000000"/>
		</linearGradient>
		<path class="st17" d="M3397.89,6558.93l-61.79,190.16c-30.85,94.94-132.82,146.89-227.75,116.05l-734.82-238.76l173.49-533.96
			l734.82,238.76C3376.78,6362.03,3428.73,6464,3397.89,6558.93z"/>
	</g>
	<g>
		<linearGradient id="SVGID_19_" gradientUnits="userSpaceOnUse" x1="162.7637" y1="8220.8809" x2="777.168" y2="8220.8809">
			<stop  offset="0" style="stop-color:#FFFFFF"/>
			<stop  offset="1" style="stop-color:#000000"/>
		</linearGradient>
		<circle class="st18" cx="469.97" cy="8220.88" r="307.2"/>
		<linearGradient id="SVGID_20_" gradientUnits="userSpaceOnUse" x1="889.7206" y1="8240.0801" x2="2164.8745" y2="8240.0801">
			<stop  offset="0" style="stop-color:#FFFFFF"/>
			<stop  offset="1" style="stop-color:#000000"/>
		</linearGradient>
		<path class="st19" d="M889.72,7907.75v664.67c0,260.83,938.82,239.7,938.82,239.7c184.98,0,336.33-151.35,336.33-336.33v-471.4
			c0-184.98-151.35-336.33-336.33-336.33C1828.54,7668.05,889.72,7646.92,889.72,7907.75z"/>
		<linearGradient id="SVGID_21_" gradientUnits="userSpaceOnUse" x1="2168.1848" y1="8224.1904" x2="3121.5708" y2="8224.1904">
			<stop  offset="0" style="stop-color:#FFFFFF"/>
			<stop  offset="1" style="stop-color:#000000"/>
		</linearGradient>
		<path class="st20" d="M3121.57,8124.22v199.95c0,99.82-80.92,180.75-180.75,180.75h-772.64v-561.44h772.64
			C3040.65,7943.47,3121.57,8024.39,3121.57,8124.22z"/>
	</g>
	<g>
		<linearGradient id="SVGID_22_" gradientUnits="userSpaceOnUse" x1="543.2378" y1="10609.5986" x2="1157.8081" y2="10609.5986">
			<stop  offset="0" style="stop-color:#FFFFFF"/>
			<stop  offset="1" style="stop-color:#000000"/>
		</linearGradient>
		<circle class="st21" cx="850.52" cy="10609.6" r="307.2"/>
		<linearGradient id="SVGID_23_" gradientUnits="userSpaceOnUse" x1="1147.8588" y1="10278.9922" x2="2557.6399" y2="10278.9922">
			<stop  offset="0" style="stop-color:#FFFFFF"/>
			<stop  offset="1" style="stop-color:#000000"/>
		</linearGradient>
		<path class="st22" d="M1152.97,10182.08l205.39,632.14c80.6,248.06,966.94-62.15,966.94-62.15
			c175.93-57.16,273.1-247.88,215.94-423.81l-145.67-448.32c-57.16-175.93-247.88-273.1-423.8-215.94
			C1971.77,9664,1072.37,9934.02,1152.97,10182.08z"/>
		<linearGradient id="SVGID_24_" gradientUnits="userSpaceOnUse" x1="2379.9011" y1="9964.1416" x2="3413.1606" y2="9964.1416">
			<stop  offset="0" style="stop-color:#FFFFFF"/>
			<stop  offset="1" style="stop-color:#000000"/>
		</linearGradient>
		<path class="st23" d="M3342.48,9698.28l61.79,190.16c30.85,94.94-21.11,196.91-116.05,227.75l-734.82,238.76l-173.49-533.96
			l734.82-238.76C3209.66,9551.38,3311.63,9603.34,3342.48,9698.28z"/>
	</g>
	<g>
		<linearGradient id="SVGID_25_" gradientUnits="userSpaceOnUse" x1="1643.3849" y1="12763.8066" x2="2257.8328" y2="12763.8066">
			<stop  offset="0" style="stop-color:#FFFFFF"/>
			<stop  offset="1" style="stop-color:#000000"/>
		</linearGradient>
		<circle class="st24" cx="1950.61" cy="12763.81" r="307.2"/>
		<linearGradient id="SVGID_26_" gradientUnits="userSpaceOnUse" x1="2085.9941" y1="12151.2666" x2="3535.5293" y2="12151.2666">
			<stop  offset="0" style="stop-color:#FFFFFF"/>
			<stop  offset="1" style="stop-color:#000000"/>
		</linearGradient>
		<path class="st25" d="M2106.14,12263.75l390.68,537.73c153.31,211.01,900.41-357.91,900.41-357.91
			c149.65-108.73,183.14-320.14,74.41-469.79l-277.08-381.37c-108.73-149.66-320.14-183.14-469.79-74.41
			C2724.77,11518.01,1952.83,12052.74,2106.14,12263.75z"/>
		<linearGradient id="SVGID_27_" gradientUnits="userSpaceOnUse" x1="3161.4399" y1="11523.957" x2="4191.043" y2="11523.957">
			<stop  offset="0" style="stop-color:#FFFFFF"/>
			<stop  offset="1" style="stop-color:#000000"/>
		</linearGradient>
		<path class="st26" d="M4038.99,11127.03l117.53,161.76c58.67,80.76,40.77,193.79-39.99,252.47l-625.08,454.15l-330.01-454.21
			l625.08-454.15C3867.28,11028.37,3980.31,11046.27,4038.99,11127.03z"/>
	</g>
	<g>
		<linearGradient id="SVGID_28_" gradientUnits="userSpaceOnUse" x1="3355.3154" y1="14472.6348" x2="3969.7634" y2="14472.6348">
			<stop  offset="0" style="stop-color:#FFFFFF"/>
			<stop  offset="1" style="stop-color:#000000"/>
		</linearGradient>
		<circle class="st27" cx="3662.54" cy="14472.63" r="307.2"/>
		<linearGradient id="SVGID_29_" gradientUnits="userSpaceOnUse" x1="3609" y1="13635.0527" x2="5003.2915" y2="13635.0527">
			<stop  offset="0" style="stop-color:#FFFFFF"/>
			<stop  offset="1" style="stop-color:#000000"/>
		</linearGradient>
		<path class="st28" d="M3655.93,13948.99l537.73,390.68c211.01,153.31,745.74-618.63,745.74-618.63
			c108.73-149.65,75.25-361.06-74.41-469.79l-381.37-277.08c-149.65-108.73-361.06-75.25-469.79,74.41
			C4013.84,13048.58,3444.92,13795.68,3655.93,13948.99z"/>
		<linearGradient id="SVGID_30_" gradientUnits="userSpaceOnUse" x1="4436.2988" y1="12750.8936" x2="5379.1909" y2="12750.8936">
			<stop  offset="0" style="stop-color:#FFFFFF"/>
			<stop  offset="1" style="stop-color:#000000"/>
		</linearGradient>
		<path class="st29" d="M5142.91,12270.62l161.76,117.53c80.76,58.67,98.66,171.71,39.99,252.47l-454.15,625.08l-454.21-330.01
			l454.15-625.08C4949.12,12229.85,5062.15,12211.95,5142.91,12270.62z"/>
	</g>
	<g>
		<linearGradient id="SVGID_31_" gradientUnits="userSpaceOnUse" x1="5511.4541" y1="15568.8105" x2="6126.0244" y2="15568.8105">
			<stop  offset="0" style="stop-color:#FFFFFF"/>
			<stop  offset="1" style="stop-color:#000000"/>
		</linearGradient>
		<circle class="st30" cx="5818.74" cy="15568.81" r="307.2"/>
		<linearGradient id="SVGID_32_" gradientUnits="userSpaceOnUse" x1="5554.481" y1="14578.4512" x2="6817.252" y2="14578.4512">
			<stop  offset="0" style="stop-color:#FFFFFF"/>
			<stop  offset="1" style="stop-color:#000000"/>
		</linearGradient>
		<path class="st31" d="M5650.64,15072.84l632.14,205.39c248.06,80.6,518.08-818.8,518.08-818.8
			c57.16-175.93-40.01-366.64-215.94-423.8l-448.32-145.67c-175.93-57.16-366.64,40.01-423.8,215.94
			C5712.79,14105.89,5402.58,14992.24,5650.64,15072.84z"/>
		<linearGradient id="SVGID_33_" gradientUnits="userSpaceOnUse" x1="6079.686" y1="13524.8486" x2="6861.2998" y2="13524.8486">
			<stop  offset="0" style="stop-color:#FFFFFF"/>
			<stop  offset="1" style="stop-color:#000000"/>
		</linearGradient>
		<path class="st32" d="M6546.2,13017.11l190.16,61.79c94.94,30.85,146.89,132.82,116.05,227.75l-238.76,734.82l-533.96-173.49
			l238.76-734.82C6349.29,13038.22,6451.26,12986.27,6546.2,13017.11z"/>
	</g>
	<g>
		<linearGradient id="SVGID_34_" gradientUnits="userSpaceOnUse" x1="7900.9419" y1="15945.0342" x2="8515.3467" y2="15945.0342">
			<stop  offset="0" style="stop-color:#FFFFFF"/>
			<stop  offset="1" style="stop-color:#000000"/>
		</linearGradient>
		<circle class="st33" cx="8208.14" cy="15945.03" r="307.2"/>
		<linearGradient id="SVGID_35_" gradientUnits="userSpaceOnUse" x1="7654.9019" y1="14887.7021" x2="8799.7861" y2="14887.7021">
			<stop  offset="0" style="stop-color:#FFFFFF"/>
			<stop  offset="1" style="stop-color:#000000"/>
		</linearGradient>
		<path class="st34" d="M7895.01,15525.28h664.67c260.83,0,239.7-938.82,239.7-938.82c0-184.98-151.35-336.33-336.33-336.33h-471.4
			c-184.98,0-336.33,151.35-336.33,336.33C7655.31,14586.46,7634.18,15525.28,7895.01,15525.28z"/>
		<linearGradient id="SVGID_36_" gradientUnits="userSpaceOnUse" x1="7930.7354" y1="13770.1221" x2="8492.1738" y2="13770.1221">
			<stop  offset="0" style="stop-color:#FFFFFF"/>
			<stop  offset="1" style="stop-color:#000000"/>
		</linearGradient>
		<path class="st35" d="M8111.48,13293.43h199.95c99.82,0,180.75,80.92,180.75,180.75v772.64h-561.44v-772.64
			C7930.74,13374.35,8011.66,13293.43,8111.48,13293.43z"/>
	</g>
	<g>
		<linearGradient id="SVGID_37_" gradientUnits="userSpaceOnUse" x1="10289.5771" y1="15564.4775" x2="10904.1475" y2="15564.4775">
			<stop  offset="0" style="stop-color:#FFFFFF"/>
			<stop  offset="1" style="stop-color:#000000"/>
		</linearGradient>
		<circle class="st36" cx="10596.86" cy="15564.48" r="307.2"/>
		<linearGradient id="SVGID_38_" gradientUnits="userSpaceOnUse" x1="9634.8711" y1="14562.251" x2="10897.6416" y2="14562.251">
			<stop  offset="0" style="stop-color:#FFFFFF"/>
			<stop  offset="1" style="stop-color:#000000"/>
		</linearGradient>
		<path class="st37" d="M10169.34,15262.03l632.14-205.39c248.06-80.6-62.15-966.94-62.15-966.94
			c-57.16-175.93-247.88-273.1-423.81-215.94l-448.32,145.67c-175.93,57.16-273.1,247.88-215.94,423.8
			C9651.27,14443.23,9921.28,15342.63,10169.34,15262.03z"/>
		<linearGradient id="SVGID_39_" gradientUnits="userSpaceOnUse" x1="9560.5986" y1="13518.4688" x2="10342.2119" y2="13518.4688">
			<stop  offset="0" style="stop-color:#FFFFFF"/>
			<stop  offset="1" style="stop-color:#000000"/>
		</linearGradient>
		<path class="st38" d="M9685.54,13072.52l190.16-61.79c94.94-30.85,196.91,21.11,227.75,116.05l238.76,734.82l-533.96,173.49
			l-238.76-734.82C9538.65,13205.34,9590.6,13103.37,9685.54,13072.52z"/>
	</g>
	<g>
		<linearGradient id="SVGID_40_" gradientUnits="userSpaceOnUse" x1="12443.8467" y1="14464.3916" x2="13058.2939" y2="14464.3916">
			<stop  offset="0" style="stop-color:#FFFFFF"/>
			<stop  offset="1" style="stop-color:#000000"/>
		</linearGradient>
		<circle class="st39" cx="12751.07" cy="14464.39" r="307.2"/>
		<linearGradient id="SVGID_41_" gradientUnits="userSpaceOnUse" x1="11441.3848" y1="13604.2383" x2="12835.6758" y2="13604.2383">
			<stop  offset="0" style="stop-color:#FFFFFF"/>
			<stop  offset="1" style="stop-color:#000000"/>
		</linearGradient>
		<path class="st40" d="M12251.01,14308.86l537.73-390.68c211.01-153.31-357.91-900.41-357.91-900.41
			c-108.73-149.66-320.14-183.14-469.79-74.41l-381.37,277.08c-149.66,108.73-183.14,320.14-74.41,469.79
			C11505.27,13690.23,12040,14462.17,12251.01,14308.86z"/>
		<linearGradient id="SVGID_42_" gradientUnits="userSpaceOnUse" x1="11039.7754" y1="12738.7588" x2="11982.667" y2="12738.7588">
			<stop  offset="0" style="stop-color:#FFFFFF"/>
			<stop  offset="1" style="stop-color:#000000"/>
		</linearGradient>
		<path class="st41" d="M11114.29,12376.01l161.76-117.53c80.76-58.67,193.79-40.77,252.47,39.99l454.15,625.08l-454.21,330
			l-454.15-625.08C11015.63,12547.72,11033.54,12434.69,11114.29,12376.01z"/>
	</g>
	<g>
		<linearGradient id="SVGID_43_" gradientUnits="userSpaceOnUse" x1="14152.6738" y1="12752.4609" x2="14767.1221" y2="12752.4609">
			<stop  offset="0" style="stop-color:#FFFFFF"/>
			<stop  offset="1" style="stop-color:#000000"/>
		</linearGradient>
		<circle class="st42" cx="14459.9" cy="12752.46" r="307.2"/>
		<linearGradient id="SVGID_44_" gradientUnits="userSpaceOnUse" x1="12897.5488" y1="12108.8545" x2="14347.084" y2="12108.8545">
			<stop  offset="0" style="stop-color:#FFFFFF"/>
			<stop  offset="1" style="stop-color:#000000"/>
		</linearGradient>
		<path class="st43" d="M13936.25,12759.07l390.68-537.73c153.31-211.01-618.63-745.74-618.63-745.74
			c-149.65-108.73-361.06-75.25-469.79,74.41l-277.08,381.37c-108.73,149.65-75.25,361.06,74.41,469.79
			C13035.84,12401.16,13782.94,12970.08,13936.25,12759.07z"/>
		<linearGradient id="SVGID_45_" gradientUnits="userSpaceOnUse" x1="12223.3555" y1="11507.2549" x2="13252.959" y2="11507.2549">
			<stop  offset="0" style="stop-color:#FFFFFF"/>
			<stop  offset="1" style="stop-color:#000000"/>
		</linearGradient>
		<path class="st44" d="M12257.89,11272.09l117.53-161.76c58.67-80.76,171.71-98.66,252.47-39.99l625.08,454.15l-330.01,454.21
			l-625.08-454.15C12217.12,11465.88,12199.21,11352.85,12257.89,11272.09z"/>
	</g>
	<g>
		<linearGradient id="SVGID_46_" gradientUnits="userSpaceOnUse" x1="15248.7891" y1="10596.2607" x2="15863.3594" y2="10596.2607">
			<stop  offset="0" style="stop-color:#FFFFFF"/>
			<stop  offset="1" style="stop-color:#000000"/>
		</linearGradient>
		<circle class="st45" cx="15556.07" cy="10596.26" r="307.2"/>
		<linearGradient id="SVGID_47_" gradientUnits="userSpaceOnUse" x1="13860.8242" y1="10229.1338" x2="15270.6055" y2="10229.1338">
			<stop  offset="0" style="stop-color:#FFFFFF"/>
			<stop  offset="1" style="stop-color:#000000"/>
		</linearGradient>
		<path class="st46" d="M15060.1,10764.36l205.39-632.14c80.6-248.06-818.8-518.08-818.8-518.08
			c-175.93-57.16-366.64,40.01-423.8,215.94l-145.67,448.33c-57.16,175.93,40.01,366.64,215.94,423.8
			C14093.16,10702.21,14979.5,11012.42,15060.1,10764.36z"/>
		<linearGradient id="SVGID_48_" gradientUnits="userSpaceOnUse" x1="12995.4824" y1="9944.5068" x2="14028.7422" y2="9944.5068">
			<stop  offset="0" style="stop-color:#FFFFFF"/>
			<stop  offset="1" style="stop-color:#000000"/>
		</linearGradient>
		<path class="st47" d="M13004.38,9868.8l61.79-190.16c30.85-94.94,132.82-146.89,227.75-116.05l734.82,238.76l-173.49,533.96
			l-734.82-238.76C13025.49,10065.71,12973.53,9963.74,13004.38,9868.8z"/>
	</g>
	<g>
		<linearGradient id="SVGID_49_" gradientUnits="userSpaceOnUse" x1="15625.0957" y1="8206.8555" x2="16239.5" y2="8206.8555">
			<stop  offset="0" style="stop-color:#FFFFFF"/>
			<stop  offset="1" style="stop-color:#000000"/>
		</linearGradient>
		<circle class="st48" cx="15932.3" cy="8206.86" r="307.2"/>
		<linearGradient id="SVGID_50_" gradientUnits="userSpaceOnUse" x1="14237.3896" y1="8187.6558" x2="15512.543" y2="8187.6558">
			<stop  offset="0" style="stop-color:#FFFFFF"/>
			<stop  offset="1" style="stop-color:#000000"/>
		</linearGradient>
		<path class="st49" d="M15512.54,8519.99v-664.67c0-260.83-938.82-239.7-938.82-239.7c-184.98,0-336.33,151.35-336.33,336.33v471.4
			c0,184.98,151.35,336.33,336.33,336.33C14573.72,8759.69,15512.54,8780.82,15512.54,8519.99z"/>
		<linearGradient id="SVGID_51_" gradientUnits="userSpaceOnUse" x1="13280.6924" y1="8203.5459" x2="14234.0791" y2="8203.5459">
			<stop  offset="0" style="stop-color:#FFFFFF"/>
			<stop  offset="1" style="stop-color:#000000"/>
		</linearGradient>
		<path class="st50" d="M13280.69,8303.52v-199.95c0-99.82,80.92-180.75,180.75-180.75h772.64v561.44h-772.64
			C13361.62,8484.26,13280.69,8403.34,13280.69,8303.52z"/>
	</g>
	<g>
		<linearGradient id="SVGID_52_" gradientUnits="userSpaceOnUse" x1="15244.4561" y1="5818.1377" x2="15859.0254" y2="5818.1377">
			<stop  offset="0" style="stop-color:#FFFFFF"/>
			<stop  offset="1" style="stop-color:#000000"/>
		</linearGradient>
		<circle class="st51" cx="15551.74" cy="5818.14" r="307.2"/>
		<linearGradient id="SVGID_53_" gradientUnits="userSpaceOnUse" x1="13844.624" y1="6148.7441" x2="15254.4053" y2="6148.7441">
			<stop  offset="0" style="stop-color:#FFFFFF"/>
			<stop  offset="1" style="stop-color:#000000"/>
		</linearGradient>
		<path class="st52" d="M15249.29,6245.66l-205.39-632.14c-80.6-248.06-966.94,62.15-966.94,62.15
			c-175.93,57.16-273.1,247.88-215.94,423.8l145.67,448.32c57.16,175.93,247.88,273.1,423.8,215.94
			C14430.49,6763.73,15329.89,6493.72,15249.29,6245.66z"/>
		<linearGradient id="SVGID_54_" gradientUnits="userSpaceOnUse" x1="12989.1025" y1="6463.5947" x2="14022.3623" y2="6463.5947">
			<stop  offset="0" style="stop-color:#FFFFFF"/>
			<stop  offset="1" style="stop-color:#000000"/>
		</linearGradient>
		<path class="st53" d="M13059.79,6729.46L12998,6539.3c-30.85-94.94,21.11-196.91,116.05-227.75l734.82-238.76l173.49,533.96
			l-734.82,238.76C13192.6,6876.35,13090.63,6824.4,13059.79,6729.46z"/>
	</g>
	<g>
		<linearGradient id="SVGID_55_" gradientUnits="userSpaceOnUse" x1="14144.4307" y1="3663.9297" x2="14758.8789" y2="3663.9297">
			<stop  offset="0" style="stop-color:#FFFFFF"/>
			<stop  offset="1" style="stop-color:#000000"/>
		</linearGradient>
		<circle class="st54" cx="14451.66" cy="3663.93" r="307.2"/>
		<linearGradient id="SVGID_56_" gradientUnits="userSpaceOnUse" x1="12866.7344" y1="4276.4697" x2="14316.2695" y2="4276.4697">
			<stop  offset="0" style="stop-color:#FFFFFF"/>
			<stop  offset="1" style="stop-color:#000000"/>
		</linearGradient>
		<path class="st55" d="M14296.12,4163.99l-390.68-537.73c-153.31-211.01-900.41,357.91-900.41,357.91
			c-149.66,108.73-183.14,320.14-74.41,469.79l277.08,381.37c108.73,149.65,320.14,183.14,469.79,74.41
			C13677.49,4909.73,14449.43,4375,14296.12,4163.99z"/>
		<linearGradient id="SVGID_57_" gradientUnits="userSpaceOnUse" x1="12211.2207" y1="4903.7788" x2="13240.8232" y2="4903.7788">
			<stop  offset="0" style="stop-color:#FFFFFF"/>
			<stop  offset="1" style="stop-color:#000000"/>
		</linearGradient>
		<path class="st56" d="M12363.28,5300.71l-117.53-161.76c-58.67-80.76-40.77-193.79,39.99-252.47l625.08-454.15l330,454.21
			l-625.08,454.15C12534.99,5399.37,12421.95,5381.46,12363.28,5300.71z"/>
	</g>
	<g>
		<linearGradient id="SVGID_58_" gradientUnits="userSpaceOnUse" x1="12432.5" y1="1955.1018" x2="13046.9482" y2="1955.1018">
			<stop  offset="0" style="stop-color:#FFFFFF"/>
			<stop  offset="1" style="stop-color:#000000"/>
		</linearGradient>
		<circle class="st57" cx="12739.72" cy="1955.1" r="307.2"/>
		<linearGradient id="SVGID_59_" gradientUnits="userSpaceOnUse" x1="11398.9727" y1="2792.6836" x2="12793.2637" y2="2792.6836">
			<stop  offset="0" style="stop-color:#FFFFFF"/>
			<stop  offset="1" style="stop-color:#000000"/>
		</linearGradient>
		<path class="st58" d="M12746.33,2478.75l-537.73-390.68c-211.01-153.31-745.74,618.63-745.74,618.63
			c-108.73,149.65-75.25,361.06,74.41,469.79l381.37,277.08c149.65,108.73,361.06,75.25,469.79-74.41
			C12388.42,3379.16,12957.34,2632.06,12746.33,2478.75z"/>
		<linearGradient id="SVGID_60_" gradientUnits="userSpaceOnUse" x1="11023.0723" y1="3676.843" x2="11965.9648" y2="3676.843">
			<stop  offset="0" style="stop-color:#FFFFFF"/>
			<stop  offset="1" style="stop-color:#000000"/>
		</linearGradient>
		<path class="st59" d="M11259.35,4157.11l-161.76-117.53c-80.76-58.67-98.66-171.71-39.99-252.47l454.15-625.08l454.21,330.01
			l-454.15,625.08C11453.14,4197.88,11340.11,4215.79,11259.35,4157.11z"/>
	</g>
	<g>
		<linearGradient id="SVGID_61_" gradientUnits="userSpaceOnUse" x1="10276.2393" y1="858.9255" x2="10890.8096" y2="858.9255">
			<stop  offset="0" style="stop-color:#FFFFFF"/>
			<stop  offset="1" style="stop-color:#000000"/>
		</linearGradient>
		<circle class="st60" cx="10583.52" cy="858.93" r="307.2"/>
		<linearGradient id="SVGID_62_" gradientUnits="userSpaceOnUse" x1="9585.0117" y1="1849.2855" x2="10847.7822" y2="1849.2855">
			<stop  offset="0" style="stop-color:#FFFFFF"/>
			<stop  offset="1" style="stop-color:#000000"/>
		</linearGradient>
		<path class="st61" d="M10751.62,1354.9l-632.14-205.39c-248.06-80.6-518.08,818.8-518.08,818.8
			c-57.16,175.93,40.01,366.64,215.94,423.8l448.33,145.67c175.93,57.16,366.64-40.01,423.8-215.94
			C10689.48,2321.84,10999.68,1435.5,10751.62,1354.9z"/>
		<linearGradient id="SVGID_63_" gradientUnits="userSpaceOnUse" x1="9540.9639" y1="2902.8875" x2="10322.5771" y2="2902.8875">
			<stop  offset="0" style="stop-color:#FFFFFF"/>
			<stop  offset="1" style="stop-color:#000000"/>
		</linearGradient>
		<path class="st62" d="M9856.07,3410.62l-190.16-61.79c-94.94-30.85-146.89-132.82-116.05-227.75l238.76-734.82l533.96,173.49
			l-238.76,734.82C10052.97,3389.51,9951,3441.47,9856.07,3410.62z"/>
	</g>
</g>
</svg>
