<?xml version="1.0" encoding="utf-8"?>
<!-- Generator: Adobe Illustrator 23.0.1, SVG Export Plug-In . SVG Version: 6.00 Build 0)  -->
<svg version="1.1" id="Layer_1" xmlns="http://www.w3.org/2000/svg" xmlns:xlink="http://www.w3.org/1999/xlink" x="0px" y="0px"
	 viewBox="0 0 16382.95 16382.95" style="enable-background:new 0 0 16382.95 16382.95;" xml:space="preserve">
<style type="text/css">
	.st0{fill:#F5776D;}
	.st1{opacity:0.08;clip-path:url(#SVGID_2_);}
	.st2{fill:#FFEED2;}
	.st3{fill:#333333;}
	.st4{fill:#CCBEAC;}
	.st5{fill:#373C3D;}
	.st6{opacity:0.35;fill:#FFFFFF;}
	.st7{fill:none;stroke:#666666;stroke-width:260;stroke-miterlimit:10;}
</style>
<circle class="st0" cx="7103.68" cy="8347.5" r="6888"/>
<g>
	<defs>
		<circle id="SVGID_1_" cx="7103.68" cy="8347.5" r="6888"/>
	</defs>
	<clipPath id="SVGID_2_">
		<use xlink:href="#SVGID_1_"  style="overflow:visible;"/>
	</clipPath>
	<polygon class="st1" points="4271.29,12208.78 7690.14,15746.85 16555.29,13514.02 14653.25,9031.82 9922.28,4380.09 
		4271.29,4380.09 	"/>
</g>
<rect x="4271.29" y="4380.09" class="st2" width="5650.99" height="7828.68"/>
<g id="holes">
	<circle class="st3" cx="4429.79" cy="5244.28" r="177.8"/>
	<circle class="st3" cx="4433.93" cy="6120.87" r="177.8"/>
	<circle class="st3" cx="4438.06" cy="6997.47" r="177.8"/>
	<circle class="st3" cx="4442.2" cy="7874.06" r="177.8"/>
	<circle class="st3" cx="4446.33" cy="8750.65" r="177.8"/>
	<circle class="st3" cx="4450.47" cy="9627.24" r="177.8"/>
	<circle class="st3" cx="4454.6" cy="10503.83" r="177.8"/>
	<circle class="st3" cx="4458.74" cy="11380.42" r="177.8"/>
</g>
<g id="spring">
	<path class="st4" d="M4450.47,5355.92h-448.63c-54.58,0-99.24-44.66-99.24-99.24v0c0-54.58,44.66-99.24,99.24-99.24h448.63
		c54.58,0,99.24,44.66,99.24,99.24v0C4549.71,5311.27,4505.05,5355.92,4450.47,5355.92z"/>
	<path class="st4" d="M4442.2,6224.25h-448.63c-54.58,0-99.24-44.66-99.24-99.24l0,0c0-54.58,44.66-99.24,99.24-99.24h448.63
		c54.58,0,99.24,44.66,99.24,99.24l0,0C4541.44,6179.59,4496.78,6224.25,4442.2,6224.25z"/>
	<path class="st4" d="M4433.93,7092.57H3985.3c-54.58,0-99.24-44.66-99.24-99.24l0,0c0-54.58,44.66-99.24,99.24-99.24h448.63
		c54.58,0,99.24,44.66,99.24,99.24l0,0C4533.17,7047.91,4488.51,7092.57,4433.93,7092.57z"/>
	<path class="st4" d="M4425.66,7960.89h-448.63c-54.58,0-99.24-44.66-99.24-99.24l0,0c0-54.58,44.66-99.24,99.24-99.24h448.63
		c54.58,0,99.24,44.66,99.24,99.24l0,0C4524.9,7916.23,4480.24,7960.89,4425.66,7960.89z"/>
	<path class="st4" d="M4438.06,8837.48h-448.63c-54.58,0-99.24-44.66-99.24-99.24l0,0c0-54.58,44.66-99.24,99.24-99.24h448.63
		c54.58,0,99.24,44.66,99.24,99.24l0,0C4537.3,8792.83,4492.64,8837.48,4438.06,8837.48z"/>
	<path class="st4" d="M4431.17,9719.59h-448.63c-54.58,0-99.24-44.66-99.24-99.24v0c0-54.58,44.66-99.24,99.24-99.24h448.63
		c54.58,0,99.24,44.66,99.24,99.24v0C4530.41,9674.93,4485.75,9719.59,4431.17,9719.59z"/>
	<path class="st4" d="M4436.69,10600.31h-448.63c-54.58,0-99.24-44.66-99.24-99.24l0,0c0-54.58,44.66-99.24,99.24-99.24h448.63
		c54.58,0,99.24,44.66,99.24,99.24l0,0C4535.92,10555.66,4491.27,10600.31,4436.69,10600.31z"/>
	<path class="st4" d="M4431.17,11467.26h-448.63c-54.58,0-99.24-44.66-99.24-99.24l0,0c0-54.58,44.66-99.24,99.24-99.24h448.63
		c54.58,0,99.24,44.66,99.24,99.24l0,0C4530.41,11422.6,4485.75,11467.26,4431.17,11467.26z"/>
</g>
<g id="lines">
	<rect x="5132.72" y="5641.23" class="st4" width="3895.05" height="446.57"/>
	<rect x="5132.72" y="6517.82" class="st4" width="3895.05" height="446.57"/>
	<rect x="5132.72" y="7394.41" class="st4" width="3895.05" height="446.57"/>
	<rect x="5132.72" y="8271" class="st4" width="3895.05" height="446.57"/>
	<rect x="5132.72" y="9147.6" class="st4" width="3895.05" height="446.57"/>
	<rect x="5132.72" y="10024.19" class="st4" width="3895.05" height="446.57"/>
</g>
<g id="microLense">
	<path id="lenseGraber" class="st5" d="M15558.4,12327.96l-4102.21-1912.89c-11.09-5.17-15.93-18.47-10.76-29.55l392.5-841.72
		c5.17-11.09,18.47-15.93,29.55-10.76l4102.21,1912.89c233.77,109.01,335.84,389.46,226.83,623.23l-14.91,31.97
		C16072.62,12334.89,15792.17,12436.97,15558.4,12327.96z"/>
	<circle id="lense" class="st6" cx="9198.67" cy="8800.27" r="2466.81"/>
	<circle id="lenseFrame" class="st7" cx="9198.67" cy="8800.27" r="2624.26"/>
</g>
</svg>
